# xmcd
#
# Track frame offsets: 
#        150
#        17992
#        35385
#        57062
#        71795
#        95658
#        119221
#        137382
#        156562
#        176823
#        203047
#        227428
#        243086
#        257894
#        274021
#        294985
#        320546
#
# Disc length: 4684 seconds
#
# Revision: 0
# Processed by: cddbd v1.5.2PL0 Copyright (c) Steve Scherf et al.
# Submitted via: ExactAudioCopy v0.99pb4
#
DISCID=fa124a11
DTITLE=Rolf Wikström - Rolf Wikström - Klassiker [CD1)
DYEAR=2008
DGENRE=Blues
TTITLE0=Allt Är Gjort Av Plåt
TTITLE1=Jag Tror Du Ljuger Nu
TTITLE2=Mississippi
TTITLE3=Blues Är Allt Jag Har (akustisk version)
TTITLE4=Har Kommit För Långt
TTITLE5=Leva Som En Luffare
TTITLE6=Inte En Spänn På Fickan
TTITLE7=Vecka Läggs Till Vecka (akustisk version)
TTITLE8=Jorden Är Ett Dårhus
TTITLE9=Jag Är Som En Främling (live)
TTITLE10=Allt Letar Sig Hemåt
TTITLE11=Bedragen Och Besviken
TTITLE12=Du Är Så Jävla Vacker
TTITLE13=En Helvetes Vacker Kvinna (blues)
TTITLE14=Eva Blues
TTITLE15=Du Säjer Du Ska Lämna Mig
TTITLE16=Nere I Skiten
EXTD=
EXTT0=
EXTT1=
EXTT2=
EXTT3=
EXTT4=
EXTT5=
EXTT6=
EXTT7=
EXTT8=
EXTT9=
EXTT10=
EXTT11=
EXTT12=
EXTT13=
EXTT14=
EXTT15=
EXTT16=
PLAYORDER=
